<svg width="61" height="48" viewBox="0 0 61 48" fill="none" xmlns="http://www.w3.org/2000/svg">
<path d="M56.3544 21.5838C53.9879 24.1708 51.0282 24.1253 48.4938 21.6813C47.6747 20.8908 46.9561 19.9931 46.1174 19.226C44.3558 17.6144 42.6263 17.6891 40.9819 19.4098C40.0457 20.3897 39.1993 21.4589 38.2264 22.3981C36.3721 24.1894 34.5871 24.0915 32.9089 22.1513C32.2352 21.3732 31.6466 20.5228 31.0021 19.7196C28.9751 17.1944 27.4451 17.1255 25.088 19.4325C24.2736 20.2299 23.4693 21.0396 22.6159 21.7932C20.8962 23.3127 18.2544 23.1156 16.8067 21.3359C16.1458 20.5239 15.5835 19.6303 14.9075 18.8323C13.4678 17.1332 11.6608 16.8876 9.87297 18.2105C8.83058 18.9817 7.91826 19.9272 6.92194 20.7654C4.71299 22.6233 2.23104 23.836 -0.819707 23.9771C1.43129 22.3992 3.67118 21.0098 5.69763 19.3585C7.75198 17.6832 9.56845 15.7186 11.5389 13.9361C14.4204 11.3292 16.3138 11.5141 18.7194 14.5579C18.787 14.6436 18.8588 14.7246 18.9252 14.8104C22.0903 18.8568 23.1402 18.921 26.8681 15.3063C27.5688 14.6267 28.2308 13.8929 29.0036 13.3066C30.5512 12.1313 32.0234 12.2374 33.3517 13.645C34.1665 14.5077 34.8408 15.504 35.5688 16.4472C37.5357 18.9957 39.463 19.0633 41.5775 16.6607C42.2581 15.886 42.9243 15.0939 43.6576 14.3723C45.7411 12.3226 47.6357 12.3559 49.7158 14.4435C50.0984 14.8273 50.4443 15.2473 50.8147 15.6434C54.1734 19.2412 56.3387 19.0213 60.8132 15.3598C59.1432 17.2667 58.0646 19.7143 56.3544 21.5838Z" fill="#030404"/>
<path d="M36.6469 0.832468C34.8438 2.10706 33.0695 3.42467 31.2309 4.64562C29.2173 5.98249 27.1547 7.24654 25.0898 8.50418C24.6214 8.78994 24.5281 9.17023 24.4703 9.75713C26.5067 8.57239 28.508 7.49387 30.4183 6.27244C32.3619 5.03118 34.2185 3.65399 36.1062 2.32633C36.6509 1.94315 36.7629 1.31487 36.9921 0.757183L36.8918 0.681979C36.8102 0.73217 36.7251 0.777094 36.6469 0.832468Z" fill="#EF4523"/>
<path d="M6.70696 35.7553C7.24827 35.7553 7.80127 35.861 8.3653 36.0708C8.26557 36.0487 8.17161 36.0324 8.083 36.0207C7.99487 36.0102 7.90626 36.0044 7.81814 36.0044C7.35326 36.0044 6.99452 36.1508 6.7402 36.4442C6.4853 36.7371 6.35809 37.1652 6.35809 37.7293C6.35809 38.2047 6.44975 38.6246 6.63225 38.9898C6.81491 39.3544 7.06915 39.6641 7.39531 39.9184C7.72138 40.1727 8.10513 40.3658 8.5473 40.4988C8.99004 40.6312 9.47063 40.6977 9.99039 40.6977C10.4103 40.6977 10.8415 40.651 11.2842 40.5565C11.7257 40.4626 12.1294 40.3132 12.4946 40.1092C12.8597 39.9044 13.1607 39.6337 13.3986 39.296C13.6361 38.9589 13.7551 38.547 13.7551 38.0606C13.7551 37.5525 13.625 37.129 13.3654 36.7919C13.1059 36.4547 12.7658 36.173 12.3458 35.946C11.9252 35.7192 11.4446 35.5313 10.9027 35.382C10.3608 35.2327 9.80781 35.095 9.24437 34.9673C8.68026 34.8407 8.12734 34.7083 7.58545 34.5701C7.04414 34.4313 6.56289 34.2603 6.14293 34.0556C5.7229 33.8509 5.38226 33.6 5.12325 33.3013C4.86308 33.0027 4.73308 32.6271 4.73308 32.1732C4.73308 31.7089 4.87189 31.2948 5.14777 30.9296C5.42431 30.5651 5.79465 30.2577 6.25895 30.0086C6.72325 29.7607 7.25938 29.57 7.86775 29.4369C8.47555 29.304 9.11716 29.2381 9.79152 29.2381C10.3001 29.2381 10.7557 29.2713 11.1593 29.3372C11.5636 29.4037 11.9444 29.4754 12.3043 29.553C12.6631 29.6306 13.0114 29.7024 13.3491 29.7683C13.6862 29.8353 14.0421 29.868 14.4189 29.868L14.9824 34.3461C14.8832 34.0148 14.7858 33.6823 14.6918 33.3509C14.5979 33.0196 14.4848 32.693 14.3523 32.3722C13.9429 31.3549 13.3678 30.6339 12.6269 30.2081C11.8862 29.7828 11.0077 29.57 9.99039 29.57C9.55933 29.57 9.11132 29.6055 8.6476 29.6773C8.18272 29.749 7.75692 29.8604 7.37021 30.0086C6.98292 30.1585 6.66261 30.3515 6.40828 30.5896C6.15396 30.8275 6.02626 31.1116 6.02626 31.4436C6.02626 31.7754 6.15684 32.0438 6.41643 32.2479C6.6766 32.4526 7.01608 32.6241 7.43612 32.7618C7.85665 32.9001 8.33732 33.0196 8.87921 33.1182C9.4211 33.218 9.9741 33.3317 10.5375 33.4582C11.1017 33.5854 11.6546 33.7354 12.1959 33.9062C12.7378 34.0777 13.2185 34.3075 13.639 34.5945C14.0589 34.8822 14.399 35.2385 14.6586 35.6644C14.9182 36.0902 15.0488 36.6128 15.0488 37.2312C15.0488 37.8839 14.9048 38.4479 14.6178 38.9232C14.3296 39.3986 13.94 39.7912 13.4483 40.1004C12.9559 40.4101 12.3895 40.6393 11.7485 40.7887C11.1068 40.938 10.4326 41.0126 9.72496 41.0126C9.01744 41.0126 8.35715 40.941 7.74351 40.7975C7.12987 40.6534 6.59613 40.4463 6.14293 40.175C5.68966 39.9044 5.33561 39.5672 5.08186 39.1636C4.82696 38.76 4.70042 38.3038 4.70042 37.7952C4.70042 37.143 4.89344 36.6402 5.28081 36.2862C5.66753 35.9326 6.14293 35.7553 6.70696 35.7553Z" fill="#030404"/>
<path d="M22.9091 39.2049L19.5096 29.9839C19.4653 30.4378 19.3492 30.982 19.1614 31.6172C18.973 32.2536 18.7606 32.9057 18.5226 33.5748C18.2846 34.2438 18.0554 34.8849 17.8343 35.4985C17.6132 36.1116 17.4476 36.6173 17.3374 37.0158C17.1711 37.6457 17.0994 38.1794 17.1215 38.6158C17.1437 39.0526 17.3374 39.321 17.7019 39.4201C17.934 39.4866 18.1604 39.4645 18.3821 39.3542C18.6026 39.2434 18.8399 39.1139 19.0949 38.9645C19.3492 38.8152 19.6309 38.6718 19.9407 38.5335C20.2498 38.3952 20.6149 38.3258 21.0356 38.3258C21.4438 38.3258 21.7979 38.3952 22.0966 38.5335C22.3952 38.6718 22.6658 38.8958 22.9091 39.2049ZM21.0851 29.221L25.3473 40.8463H23.5058C23.1967 39.973 22.8374 39.3647 22.4279 39.0229C22.2406 38.8461 22.0306 38.7213 21.7979 38.6496C21.5658 38.5778 21.3114 38.5411 21.0356 38.5411C20.7148 38.5411 20.4324 38.6082 20.1892 38.7406C19.9459 38.8735 19.7225 39.0392 19.5178 39.2381C19.313 39.437 19.1199 39.647 18.9374 39.8681C18.7548 40.0897 18.567 40.2858 18.3739 40.4567C18.1802 40.6281 17.9778 40.7582 17.7684 40.8463C17.5579 40.935 17.3198 40.9408 17.0551 40.8632C16.8001 40.7967 16.6018 40.6835 16.4577 40.5237C16.3142 40.3627 16.2174 40.1644 16.1678 39.9258C16.1176 39.6884 16.1095 39.4177 16.1427 39.1139C16.176 38.8094 16.2425 38.481 16.3422 38.1269C16.4303 37.7839 16.5768 37.364 16.7815 36.8664C16.9856 36.3694 17.2125 35.8357 17.4616 35.2658C17.7101 34.6965 17.9615 34.1108 18.2158 33.5083C18.4702 32.9057 18.6883 32.3335 18.8709 31.7916C19.0535 31.2497 19.1858 30.7527 19.2687 30.299C19.3515 29.8457 19.3434 29.4864 19.2442 29.221H21.0851Z" fill="#030404"/>
<path d="M44.957 40.326C44.7908 40.4805 44.5563 40.4805 44.2523 40.326C43.9484 40.1708 43.6574 39.8558 43.3815 39.3804C43.0052 38.7283 42.6267 38.1643 42.2451 37.6889C41.8643 37.2135 41.5044 36.8016 41.1672 36.4529C40.8301 36.1052 40.5233 35.8177 40.2474 35.5907C39.9703 35.3644 39.7498 35.1737 39.5836 35.0185C39.4179 34.8645 39.3181 34.7396 39.2855 34.6458C39.2522 34.5519 39.3071 34.4602 39.4511 34.3722C39.6057 34.2835 39.8209 34.2117 40.0974 34.1564C40.3745 34.101 40.6726 34.0403 40.9934 33.9738C41.3136 33.9072 41.6373 33.8245 41.9635 33.7253C42.2895 33.6262 42.5882 33.4873 42.8593 33.3105C43.13 33.1338 43.351 32.9128 43.5226 32.6474C43.6936 32.3819 43.7793 32.0448 43.7793 31.6359C43.7793 31.2264 43.6883 30.881 43.5057 30.5988C43.3232 30.3171 43.0828 30.0849 42.7841 29.9023C42.4861 29.7198 42.146 29.5762 41.7645 29.4719C41.383 29.3662 40.9934 29.2886 40.595 29.239C40.1971 29.1895 39.8075 29.1586 39.426 29.148C39.0446 29.137 38.7051 29.1317 38.4065 29.1317C38.0413 29.1317 37.7099 29.1423 37.4107 29.1644C37.2106 29.1793 37.0117 29.1956 36.8136 29.213C36.6286 29.2292 36.4432 29.238 36.2574 29.238H33.8876C34.076 29.2817 34.2225 29.3978 34.3275 29.5863C34.4325 29.7741 34.5101 30.0144 34.5597 30.3072C34.6098 30.6006 34.6372 30.9407 34.6425 31.3274C34.6482 31.7147 34.6513 32.1231 34.6513 32.5547V35.3073H28.8467V32.5547C28.8467 32.1231 28.849 31.7147 28.8548 31.3274C28.8601 30.9407 28.8882 30.6006 28.9377 30.3072C28.9873 30.0144 29.0619 29.7741 29.1618 29.5863C29.2608 29.3978 29.405 29.2817 29.5928 29.238H26.4254C26.6132 29.2817 26.7596 29.3978 26.8646 29.5863C26.9691 29.7741 27.0473 30.0144 27.0968 30.3072C27.1464 30.6006 27.1738 30.9407 27.1796 31.3274C27.1854 31.7147 27.1878 32.1231 27.1878 32.5547V37.5297C27.1878 37.9608 27.1854 38.3703 27.1796 38.757C27.1738 39.1443 27.1464 39.4838 27.0968 39.7766C27.0473 40.07 26.9691 40.3104 26.8646 40.4988C26.7596 40.6866 26.6132 40.8026 26.4254 40.8464H29.5928C29.405 40.8026 29.2608 40.6866 29.1618 40.4988C29.0619 40.3104 28.9873 40.07 28.9377 39.7766C28.8882 39.4838 28.8601 39.1443 28.8548 38.757C28.849 38.3703 28.8467 37.9608 28.8467 37.5297V35.6398H34.6513V37.5297C34.6513 37.9608 34.6482 38.3703 34.6425 38.757C34.6372 39.1443 34.6098 39.4838 34.5597 39.7766C34.5101 40.07 34.4325 40.3104 34.3275 40.4988C34.2225 40.6866 34.076 40.8026 33.8876 40.8464H37.0556C36.8678 40.8026 36.7243 40.6866 36.6246 40.4988C36.5248 40.3104 36.4501 40.07 36.4006 39.7766C36.3504 39.4838 36.323 39.1443 36.3177 38.757C36.3119 38.3703 36.3095 37.9608 36.3095 37.5297V32.5547C36.3095 32.1231 36.3119 31.7147 36.3177 31.3274C36.323 30.9407 36.3504 30.6006 36.4006 30.3072C36.4501 30.0144 36.5248 29.7741 36.6246 29.5863C36.6249 29.5857 36.6251 29.5851 36.6255 29.5845C36.6761 29.4893 36.777 29.4316 36.8845 29.4236C37.0324 29.4126 37.1803 29.4013 37.3285 29.3884C37.6487 29.361 38.008 29.347 38.4065 29.347C38.8153 29.347 39.2271 29.3796 39.6419 29.4467C40.0566 29.5126 40.4352 29.6287 40.7776 29.7944C41.12 29.96 41.4 30.1928 41.6152 30.4915C41.831 30.7895 41.9389 31.1715 41.9389 31.6359C41.9389 32.1113 41.8527 32.4787 41.6817 32.7384C41.5101 32.998 41.2944 33.2084 41.0348 33.3683C40.7752 33.5293 40.49 33.6647 40.1809 33.7748C39.8711 33.8858 39.5777 34.0292 39.3018 34.206C39.0142 34.3943 38.8952 34.6621 38.9454 35.0103C38.995 35.3585 39.1495 35.7792 39.4097 36.2709C39.6693 36.7631 40.0006 37.3244 40.4049 37.9543C40.8079 38.5842 41.2255 39.2697 41.6566 40.0105C41.8666 40.3756 42.115 40.6545 42.4032 40.8486C42.6903 41.0417 42.9889 41.1549 43.2986 41.1881C43.6078 41.2214 43.9204 41.177 44.2354 41.0551C44.551 40.9338 44.8409 40.7402 45.1063 40.4748L44.957 40.326Z" fill="#030404"/>
<path d="M52.8555 39.2049L49.4553 29.9839C49.4116 30.4378 49.2949 30.982 49.1076 31.6172C48.9186 32.2536 48.7064 32.9057 48.4683 33.5748C48.2309 34.2438 48.0017 34.8849 47.7806 35.4985C47.559 36.1116 47.3933 36.6173 47.2831 37.0158C47.1175 37.6457 47.0451 38.1794 47.0678 38.6158C47.0894 39.0526 47.2831 39.321 47.6477 39.4201C47.8798 39.4866 48.1061 39.4645 48.3278 39.3542C48.5489 39.2434 48.7863 39.1139 49.0406 38.9645C49.2949 38.8152 49.5772 38.6718 49.887 38.5335C50.1961 38.3952 50.5607 38.3258 50.9813 38.3258C51.3901 38.3258 51.7442 38.3952 52.0423 38.5335C52.3415 38.6718 52.6122 38.8958 52.8555 39.2049ZM51.0308 29.221L55.2931 40.8463H53.4521C53.143 39.973 52.7831 39.3647 52.3742 39.0229C52.1864 38.8461 51.9764 38.7213 51.7442 38.6496C51.5121 38.5778 51.2578 38.5411 50.9813 38.5411C50.6604 38.5411 50.3787 38.6082 50.1355 38.7406C49.8917 38.8735 49.6682 39.0392 49.4641 39.2381C49.2594 39.437 49.0657 39.647 48.8831 39.8681C48.7011 40.0897 48.5127 40.2858 48.3196 40.4567C48.126 40.6281 47.9241 40.7582 47.7142 40.8463C47.5042 40.935 47.2661 40.9408 47.0008 40.8632C46.7464 40.7967 46.5475 40.6835 46.404 40.5237C46.26 40.3627 46.1637 40.1644 46.1136 39.9258C46.064 39.6884 46.0558 39.4177 46.0891 39.1139C46.1223 38.8094 46.1882 38.481 46.288 38.1269C46.3766 37.7839 46.5224 37.364 46.7272 36.8664C46.9319 36.3694 47.1589 35.8357 47.4073 35.2658C47.6564 34.6965 47.9078 34.1108 48.1621 33.5083C48.4164 32.9057 48.6346 32.3335 48.8172 31.7916C48.9992 31.2497 49.1322 30.7527 49.215 30.299C49.2978 29.8457 49.2897 29.4864 49.1905 29.221H51.0308Z" fill="#030404"/>
<path d="M22.3313 47.2862C21.8832 47.4219 21.4996 47.4898 21.1806 47.4898C20.6374 47.4898 20.1939 47.3099 19.8499 46.9501C19.5081 46.588 19.3373 46.1195 19.3373 45.5447C19.3373 44.9857 19.4878 44.5275 19.7888 44.1699C20.092 43.8123 20.479 43.6336 20.9497 43.6336C21.3955 43.6336 21.7395 43.792 21.9817 44.1088C22.2261 44.4256 22.3483 44.876 22.3483 45.4599L22.3449 45.6669H20.0196C20.1169 46.5427 20.5458 46.9806 21.3062 46.9806C21.5845 46.9806 21.9262 46.906 22.3313 46.7566V47.2862ZM20.0501 45.1645H21.6762C21.6762 44.4788 21.4204 44.136 20.909 44.136C20.3953 44.136 20.109 44.4788 20.0501 45.1645ZM24.2697 47.405L22.8982 43.7184H23.567L24.6397 46.5869L25.7701 43.7184H26.3947L24.9384 47.405H24.2697ZM29.8063 47.2862C29.3582 47.4219 28.9746 47.4898 28.6555 47.4898C28.1124 47.4898 27.6688 47.3099 27.3248 46.9501C26.9831 46.588 26.8122 46.1195 26.8122 45.5447C26.8122 44.9857 26.9627 44.5275 27.2637 44.1699C27.567 43.8123 27.954 43.6336 28.4247 43.6336C28.8705 43.6336 29.2145 43.792 29.4566 44.1088C29.701 44.4256 29.8233 44.876 29.8233 45.4599L29.8199 45.6669H27.4945C27.5919 46.5427 28.0207 46.9806 28.7811 46.9806C29.0595 46.9806 29.4012 46.906 29.8063 46.7566V47.2862ZM27.5251 45.1645H29.1511C29.1511 44.4788 28.8954 44.136 28.3839 44.136C27.8702 44.136 27.5839 44.4788 27.5251 45.1645ZM30.9808 47.405V43.7184H31.6496V44.4109C32.0026 43.8949 32.4348 43.6369 32.9463 43.6369C33.2654 43.6369 33.52 43.7388 33.7101 43.9425C33.9002 44.1439 33.9952 44.4154 33.9952 44.7572V47.405H33.3265V44.9744C33.3265 44.7006 33.2858 44.506 33.2043 44.3906C33.1251 44.2729 32.9927 44.214 32.8071 44.214C32.3975 44.214 32.0117 44.4822 31.6496 45.0186V47.405H30.9808ZM36.4054 47.4898C36.066 47.4898 35.8012 47.3925 35.6111 47.1979C35.421 47.0033 35.3259 46.7328 35.3259 46.3866V44.2208H34.8643V43.7184H35.3259V43.0497L35.9947 42.9852V43.7184H36.9587V44.2208H35.9947V46.2644C35.9947 46.7464 36.2029 46.9874 36.6193 46.9874C36.7075 46.9874 36.815 46.9727 36.9418 46.9433V47.405C36.7358 47.4616 36.557 47.4898 36.4054 47.4898ZM38.8767 47.4898C38.5712 47.4898 38.2 47.4186 37.7633 47.276V46.6616C38.2 46.8788 38.5802 46.9874 38.9039 46.9874C39.0962 46.9874 39.2558 46.9354 39.3825 46.8313C39.5092 46.7272 39.5726 46.5971 39.5726 46.4409C39.5726 46.2123 39.3949 46.0234 39.0396 45.874L38.6493 45.7077C38.0722 45.4678 37.7836 45.1227 37.7836 44.6723C37.7836 44.351 37.8968 44.0986 38.1231 43.9153C38.3517 43.7297 38.664 43.6369 39.06 43.6369C39.266 43.6369 39.5206 43.6652 39.8238 43.7218L39.963 43.749V44.3057C39.5896 44.1948 39.2931 44.1394 39.0736 44.1394C38.6436 44.1394 38.4286 44.2955 38.4286 44.6078C38.4286 44.8092 38.5916 44.979 38.9174 45.117L39.2399 45.2528C39.6043 45.4067 39.8623 45.5696 40.0139 45.7416C40.1655 45.9113 40.2413 46.1241 40.2413 46.3798C40.2413 46.7034 40.1135 46.9693 39.8577 47.1775C39.602 47.3857 39.275 47.4898 38.8767 47.4898Z" fill="#EF4523"/>
</svg>
